# xmcd
#
# Track frame offsets: 
#        150
#        2118
#        18579
#        36765
#        50186
#        61068
#        71449
#        84808
#        105194
#        119431
#        138479
#        153582
#        170476
#        185766
#        200786
#        211380
#
# Disc length: 2994 seconds
#
# Revision: 1
# Processed by: cddbd v1.5.2PL0 Copyright (c) Steve Scherf et al.
# Submitted via: ExactAudioCopyFreeDBPlugin 1.0
#
DISCID=df0bb010
DTITLE=Ice Cube - I Am The West (Clean)
DYEAR=2010
DGENRE=Hip Hop
TTITLE0=A Boy Was Conceived (Intro)
TTITLE1=Soul On Ice
TTITLE2=Life In California (featuring Jayo and WC)
TTITLE3=She Couldn't Make It On Her Own (featuring OMG and Doughboy)
TTITLE4=Urbanian
TTITLE5=Ya'll Know How I Am (featuring OMG, Doughboy, WC, Maylay)
TTITLE6=Too West Coast (featuring WC and Maylay)
TTITLE7=I Rep That West
TTITLE8=Drink The Kool-Aid
TTITLE9=No Country For Young Men
TTITLE10=It Is What It Is
TTITLE11=Hood Robbin'
TTITLE12=Your Money Or Your Life
TTITLE13=Nothing Like L.A.
TTITLE14=All Day, Every Day
TTITLE15=Fat Cat
EXTD=
EXTT0=
EXTT1=
EXTT2=
EXTT3=
EXTT4=
EXTT5=
EXTT6=
EXTT7=
EXTT8=
EXTT9=
EXTT10=
EXTT11=
EXTT12=
EXTT13=
EXTT14=
EXTT15=
PLAYORDER=
